<svg width="113" height="34" viewBox="0 0 113 34" fill="none" xmlns="http://www.w3.org/2000/svg">
<path d="M27.7 18.62C27.7 18.62 27.79 18.35 27.79 18.2C27.79 17.99 27.64 17.87 27.43 17.87C27.16 17.87 27.04 18.2 27.04 18.2C27.04 18.2 25.87 21.59 23.92 21.59C22.03 21.59 22.51 17.33 19.45 16.19C26.17 14.09 22.15 1.55 25.21 1.55C25.6 1.55 25.69 1.82 25.84 1.82C26.08 1.82 26.29 1.46 26.29 1.28C26.29 1.04 25.81 0.499998 25.18 0.499998C20.59 0.499998 21.43 10.55 19.12 14.3C18.55 15.23 17.68 15.56 16.87 15.59V15.2C16.87 7.25 14.98 0.499998 9.13 0.499998C5.5 0.499998 0.79 3.83 0.79 10.79C0.79 15.29 3.46 17.87 6.4 17.87C9.16 17.87 10.81 15.14 10.81 12.74C10.81 10.31 9.1 8.6 8.23 8.06C8.02 7.94 7.87 7.88 7.75 7.88C7.54 7.88 7.39 8.09 7.39 8.27C7.39 8.39 7.45 8.51 7.54 8.66C7.87 9.23 8.44 10.4 8.44 13.01C8.44 14.6 8.02 16.82 6.58 16.82C5.11 16.82 3.49 14.36 3.49 10.61C3.49 4.4 6.64 1.67 8.53 1.67C12.04 1.67 14.23 9.05 14.23 14.84V15.41C13.78 15.62 13.51 16.04 13.51 16.49C13.51 16.97 13.78 17.33 14.17 17.54C13.96 23.87 12.85 24.92 11.59 24.92C10.21 24.92 9.46 22.97 9.46 21.5C9.46 21.11 9.25 21.02 9.01 21.02C8.5 21.02 7.6 21.74 7.6 22.37C7.6 23.81 9.07 26 11.53 26C14.11 26 16.42 24.38 16.81 17.3C17.35 17.15 17.86 16.97 18.07 16.85C20.65 17.87 18.4 23.96 23.26 23.96C25.96 23.96 27.7 18.62 27.7 18.62ZM35.6549 23.24C37.7249 23.24 39.3149 18.62 39.3149 18.62C39.3149 18.62 39.4049 18.35 39.4049 18.2C39.4049 17.99 39.2549 17.87 39.0449 17.87C38.7749 17.87 38.6549 18.2 38.6549 18.2C38.6549 18.2 37.5449 21.38 35.9849 21.38C35.4149 21.38 35.0249 20.39 35.0249 18.95C35.0249 15.98 35.7749 15.17 35.7749 14.84C35.7749 14.63 35.6249 14.45 35.3849 14.45C32.9549 14.45 32.8949 16.55 32.5949 17.99C32.2049 19.82 31.5749 22.19 30.7649 22.19C30.1649 22.19 29.4749 21.14 29.4749 18.89C29.4749 14.24 31.3349 11.99 32.6549 11.99C33.4649 11.99 33.8249 12.47 33.8249 13.1C33.8249 13.49 33.7649 13.7 33.7649 13.91C33.7649 14.03 33.8249 14.24 34.0949 14.24C34.4549 14.24 35.4749 13.88 35.4749 13.19C35.4749 11.75 34.2449 10.73 32.6849 10.73C29.9249 10.73 26.7149 13.46 26.7149 18.89C26.7149 22.07 28.5149 23.72 30.3149 23.72C32.3249 23.72 33.0149 20.87 33.0449 20.72C33.1049 20.93 33.6749 23.24 35.6549 23.24ZM38.6465 18.2C38.6465 18.2 38.5565 18.47 38.5565 18.62C38.5565 18.83 38.7065 18.95 38.9165 18.95C39.1865 18.95 39.3065 18.62 39.3065 18.62C39.4265 18.38 40.3265 16.04 40.8365 12.53C41.6165 12.92 42.0065 13.34 42.0065 13.61C42.0065 14.84 40.9865 17 40.9865 20.18C40.9865 22.43 42.4265 23.69 44.1665 23.69C47.1365 23.69 48.8165 18.62 48.8165 18.62C48.8165 18.62 48.9065 18.35 48.9065 18.2C48.9065 17.99 48.7565 17.87 48.5465 17.87C48.2765 17.87 48.1565 18.2 48.1565 18.2C48.1565 18.2 46.7765 21.95 45.0665 21.95C44.4665 21.95 43.6865 21.41 43.6865 19.04C43.6865 15.38 44.6165 13.49 44.6165 12.77C44.6165 12.29 44.2565 12.05 43.4765 12.05C42.4265 12.05 41.7065 11.78 41.1665 11.3C41.1665 8.18 40.5965 7.64 39.4865 7.64C38.8865 7.64 38.0765 8.21 38.0765 9.08C38.0765 10.55 39.2465 11.57 39.9365 12.17C39.6065 15.62 38.6465 18.2 38.6465 18.2ZM56.485 23.24C58.555 23.24 60.145 18.62 60.145 18.62C60.145 18.62 60.235 18.35 60.235 18.2C60.235 17.99 60.085 17.87 59.875 17.87C59.605 17.87 59.485 18.2 59.485 18.2C59.485 18.2 58.375 21.38 56.815 21.38C56.245 21.38 55.855 20.39 55.855 18.95C55.855 15.98 56.605 15.17 56.605 14.84C56.605 14.63 56.455 14.45 56.215 14.45C53.785 14.45 53.725 16.55 53.425 17.99C53.035 19.82 52.405 22.19 51.595 22.19C50.995 22.19 50.305 21.14 50.305 18.89C50.305 14.24 52.165 11.99 53.485 11.99C54.295 11.99 54.655 12.47 54.655 13.1C54.655 13.49 54.595 13.7 54.595 13.91C54.595 14.03 54.655 14.24 54.925 14.24C55.285 14.24 56.305 13.88 56.305 13.19C56.305 11.75 55.075 10.73 53.515 10.73C50.755 10.73 47.545 13.46 47.545 18.89C47.545 22.07 49.345 23.72 51.145 23.72C53.155 23.72 53.845 20.87 53.875 20.72C53.935 20.93 54.505 23.24 56.485 23.24ZM54.445 5C54.235 5 54.205 5.15 54.085 5.33C52.285 8.48 50.695 9.08 50.695 9.41C50.695 9.74 50.965 9.89 51.205 9.89C51.475 9.89 53.545 9.74 56.215 7.64C56.515 7.4 56.635 7.25 56.635 6.95C56.635 6.26 55.045 5 54.445 5ZM63.9466 23.69C67.6966 23.69 69.2866 18.62 69.2866 18.62C69.2866 18.62 69.3766 18.35 69.3766 18.2C69.3766 17.99 69.2266 17.87 69.0166 17.87C68.7466 17.87 68.6266 18.2 68.6266 18.2C68.6266 18.2 67.3666 22.07 64.6666 22.07C63.1666 22.07 61.9966 20.75 61.9966 17.72C61.9966 14.15 63.1966 11.66 64.4866 11.66C64.9966 11.66 65.1766 12.14 65.1766 12.29C65.1766 13.7 64.3666 14 64.3666 14.69C64.3666 15.08 65.1766 15.65 65.7466 15.65C66.2566 15.65 66.7666 14.72 66.7666 13.1C66.7666 11.57 65.6866 10.43 64.2766 10.43C62.1766 10.43 59.0266 13.25 59.0266 18.2C59.0266 21.77 61.3366 23.69 63.9466 23.69ZM69.6672 13.82C69.2472 16.46 68.6172 18.2 68.6172 18.2C68.6172 18.2 68.5272 18.47 68.5272 18.62C68.5272 18.83 68.6772 18.95 68.8872 18.95C69.1572 18.95 69.2772 18.62 69.2772 18.62C69.3672 18.41 69.9372 16.91 70.4772 14.33C70.9872 15.44 72.6072 17.12 72.6072 19.82C72.6072 20.03 72.6072 20.24 72.5772 20.45C71.2872 20.27 70.1472 19.97 69.1872 19.97C68.3172 19.97 67.5972 20.57 67.5972 21.41C67.5972 22.79 69.3072 23.6 70.9272 23.6C72.5772 23.6 74.2572 22.76 75.0672 21.44C77.1672 20.9 77.8872 18.62 77.8872 18.62C77.8872 18.62 77.9772 18.35 77.9772 18.2C77.9772 17.99 77.8272 17.87 77.6172 17.87C77.3472 17.87 77.2272 18.2 77.2272 18.2C77.2272 18.2 76.7172 19.73 75.4872 20.33C75.5172 20.15 75.5472 19.97 75.5472 19.76C75.5472 16.85 71.5872 14.57 71.5872 12.77C71.5872 12.77 72.2172 11.42 72.2172 10.7C72.2172 9.98 71.7672 9.47 70.8972 9.47C69.9972 9.47 69.3072 10.22 69.3072 11.6C69.3072 12.38 69.6672 13.82 69.6672 13.82ZM70.7172 22.55C70.1472 22.55 69.3372 22.22 69.3372 21.65C69.3372 21.29 69.6072 21.14 69.9072 21.14C70.5672 21.14 71.3772 21.29 72.3072 21.41C72.0072 22.07 71.4972 22.55 70.7172 22.55ZM76.9605 18.08C76.9605 21.56 78.8805 23.6 81.7605 23.6C84.1905 23.6 86.7405 21.56 86.7405 17.21C86.7405 12.47 84.7005 10.67 81.9405 10.67C79.3605 10.67 77.4405 12.32 77.4405 13.97C77.4405 14.33 77.5305 14.69 77.7105 14.99C77.4105 15.53 76.9605 16.58 76.9605 18.08ZM79.4505 17.54C79.4505 17 79.4505 16.61 79.4805 16.25C79.6305 16.28 79.7805 16.28 79.9605 16.28C80.2905 16.28 80.5905 16.16 80.5905 15.83C80.5905 15.35 79.9005 15.44 79.9005 14.09C79.9005 13.07 80.8005 11.9 82.0005 11.9C83.1105 11.9 84.2805 12.8 84.2805 16.34C84.2805 20.87 83.0205 22.13 81.7905 22.13C80.4705 22.13 79.4505 20.84 79.4505 17.54ZM96.0796 23.69C99.0496 23.69 100.73 18.62 100.73 18.62C100.73 18.62 100.82 18.35 100.82 18.2C100.82 17.99 100.67 17.87 100.46 17.87C100.19 17.87 100.07 18.2 100.07 18.2C100.07 18.2 98.7496 21.92 96.9796 21.92C96.5296 21.92 96.1996 21.59 96.1996 20.93C96.1996 18.05 97.3096 14.81 97.3096 12.68C97.3096 11.57 96.2896 10.79 95.2096 10.79C93.0196 10.79 90.9496 14.33 90.2296 16.94C90.2296 13.19 90.6796 12.38 90.6796 11.9C90.6796 11.63 90.3796 11.6 90.1696 11.6C89.0296 11.6 87.8596 13.25 87.8596 18.5C87.8596 21.77 88.8796 23.15 89.9296 23.15C90.1696 23.15 90.6196 23.12 90.6196 22.64C90.6196 22.28 90.4996 21.98 90.4996 21.23C90.4996 20.84 90.5296 20.39 90.6196 19.79C91.2796 15.98 93.5296 12.17 94.8196 12.17C94.9696 12.17 95.2096 12.2 95.2096 12.68C95.2096 14.45 93.3496 17.69 93.3496 20.96C93.3496 23.03 94.9996 23.69 96.0796 23.69ZM112.652 18.62C112.652 18.62 112.742 18.35 112.742 18.2C112.742 17.99 112.592 17.87 112.382 17.87C112.112 17.87 111.992 18.2 111.992 18.2C111.422 19.79 110.342 21.17 109.082 22.4C108.902 20.96 108.752 19.55 108.752 17.93C108.752 13.64 109.502 12.23 109.502 11.84C109.502 11.6 109.172 11.48 108.932 11.48C107.552 11.48 106.202 12.8 106.202 18.08C106.202 19.7 104.852 22.1 103.802 22.1C103.232 22.1 102.542 21.26 102.542 17.69C102.542 13.64 103.292 11.36 103.292 10.97C103.292 10.73 103.112 10.49 102.632 10.49C101.162 10.49 99.722 12.62 99.722 17.9C99.722 22.28 101.792 23.69 103.442 23.69C104.642 23.69 105.902 22.28 106.562 20.84C106.562 20.84 106.772 22.4 106.922 24.29C104.342 26.45 101.822 28.28 101.822 30.44C101.822 31.85 102.962 33.26 104.942 33.26C107.312 33.26 109.382 30.86 109.382 26.84C109.382 25.64 109.292 24.59 109.202 23.6C110.672 22.19 111.992 20.57 112.652 18.62ZM103.292 30.35C103.292 28.79 105.032 27.32 107.012 25.61C107.042 26.21 107.072 26.81 107.072 27.41C107.072 30.35 105.872 31.85 104.702 31.85C103.712 31.85 103.292 31.25 103.292 30.35Z" fill="white"/>
</svg>
